<svg width="16" height="12" viewBox="0 0 16 12" fill="none" xmlns="http://www.w3.org/2000/svg">
<path d="M7.98839 0.500962C7.99542 0.50111 8.00245 0.50111 8.00947 0.500962C9.29644 0.473823 10.6501 1.02435 11.9347 1.92954C13.2142 2.83103 14.384 4.05597 15.2911 5.30248C15.5697 5.69003 15.5696 6.3074 15.291 6.69493C14.4038 7.91533 13.2457 9.14138 11.9669 10.0503C10.6831 10.9628 9.31974 11.5266 8.00945 11.499C8.00244 11.4989 7.99543 11.4989 7.98842 11.499C6.67814 11.5266 5.31499 10.9629 4.03154 10.0504C2.75314 9.14143 1.59557 7.91541 0.709069 6.69505C0.430326 6.30749 0.43031 5.68993 0.709023 5.30234C1.61502 4.05592 2.78427 2.831 4.06345 1.92951C5.34782 1.02435 6.70142 0.473823 7.98839 0.500962Z" stroke="#366EE7" stroke-linecap="round" stroke-linejoin="round"/>
<path d="M10.1645 5.99943V5.99954C10.1641 7.67421 9.09557 8.83248 7.99739 8.83223C6.89916 8.83199 5.83094 7.67317 5.83105 5.9985C5.83117 4.32383 6.89955 3.16528 7.99775 3.16528H7.99792C8.53205 3.16511 9.07396 3.42955 9.49338 3.95398C9.91511 4.48131 10.1648 5.21611 10.1645 5.99943Z" stroke="#366EE7" stroke-linecap="round" stroke-linejoin="round"/>
</svg>
